<svg xmlns="http://www.w3.org/2000/svg" xmlns:xlink="http://www.w3.org/1999/xlink" width="558.693" height="121.593" viewBox="0 0 558.693 121.593"><defs><clipPath id="clip-path"><rect id="Rectangle_912" data-name="Rectangle 912" width="138.675" height="48" fill="none"></rect></clipPath></defs><g id="Group_2780" data-name="Group 2780" transform="translate(9111.347 253)"><g id="Group_2779" data-name="Group 2779" transform="translate(-147 -102)"><path id="Path_800" data-name="Path 800" d="M6586.491,3845s80.884,6.917,142.345,52.969c34.9,27.094,62,48.01,81.269,57.138,8.243,4.657,30.83,12.012,55.982,11.456s43.207-4.657,54.97-11.456c34.152-17.148,65.626-45.307,81.64-57.138s56.614-43.876,142.488-52.969Z" transform="translate(-15550.838 -3996)" fill="#b0a6eb"></path><path id="Path_827" data-name="Path 827" d="M0,4.266V40.911H10.869v-14.8H26.04V19.45H10.869v-6.46H29.1V4.266Z" transform="translate(-8754.338 -126.674)" fill="#fcfaf5"></path><g id="Group_2430" data-name="Group 2430" transform="translate(-8754.338 -123)"><g id="Group_2429" data-name="Group 2429" clip-path="url(#clip-path)"><path id="Path_828" data-name="Path 828" d="M262.678,30.511c-2.54.02-3.983-2.073-4.959-3.13-2.529-2.74-3.365-3.767-6.573-3.98.041-.005.082-.012.123-.016,1.3-.133,2.607-.213,3.9-.409a13.313,13.313,0,0,0,6.391-2.7,8.39,8.39,0,0,0,2.2-10.664c-1.46-2.506-5.37-5.293-11.819-5.293-3.572,0-21.585-.054-21.585-.054V40.912h10.869V25.861h0c.278-.025.587-.05.915-.073,1.081-.04,2.163-.106,3.238-.047l.035-.015a7.9,7.9,0,0,1,1.3.165,7.016,7.016,0,0,1,4.579,3.712c.975,1.816,2.526,5.227,3.441,7.289a8.01,8.01,0,0,0,12.939,2.42v-12.7c-.806,1.884-2.452,3.875-4.993,3.9M249.5,20.5h-8.267V13.343H249.5c2.143,0,5.542.81,5.542,3.581s-3.4,3.581-5.542,3.581" transform="translate(-198.41 -3.675)" fill="#fcfaf5"></path><path id="Path_829" data-name="Path 829" d="M547.547,40.911V32.188H529.6V26.061H544.5V19.535H529.6V12.989h17.942V4.266H518.735V40.911h28.812Z" transform="translate(-446.8 -3.674)" fill="#fcfaf5"></path><path id="Path_830" data-name="Path 830" d="M746.409,0A18.893,18.893,0,1,0,765.3,18.892,18.893,18.893,0,0,0,746.409,0m6.81,30.689a2.724,2.724,0,0,1-3.721-1L738.6,10.818a2.724,2.724,0,1,1,4.718-2.724l10.9,18.873a2.724,2.724,0,0,1-1,3.721" transform="translate(-626.627 0.001)" fill="#fcfaf5"></path><path id="Path_831" data-name="Path 831" d="M230.977,313.029v1.757h2.393v.388h-2.393v2.054h-.409v-4.588H233.5v.388Z" transform="translate(-198.594 -269.285)" fill="#fcfaf5"></path><path id="Path_832" data-name="Path 832" d="M271.057,317.229l-1.32-1.863h-1.242v1.863h-.41v-4.588h2.1a1.366,1.366,0,0,1,.042,2.724l1.32,1.863Zm-2.562-2.266h1.637a.964.964,0,0,0,0-1.927h-1.637Z" transform="translate(-230.908 -269.285)" fill="#fcfaf5"></path><path id="Path_833" data-name="Path 833" d="M307.794,314.584a2.291,2.291,0,1,1,2.294,2.351,2.228,2.228,0,0,1-2.294-2.351m4.171,0a1.882,1.882,0,1,0-1.878,1.941,1.821,1.821,0,0,0,1.878-1.941" transform="translate(-265.111 -268.935)" fill="#fcfaf5"></path><path id="Path_834" data-name="Path 834" d="M355.427,316.841l2.548.007v.381h-3.042v-.36l2.6-3.847h-2.555v-.381h3.042V313Z" transform="translate(-305.713 -269.286)" fill="#fcfaf5"></path><path id="Path_835" data-name="Path 835" d="M393.421,313.023v1.729h2.372v.381h-2.372v1.715h2.52v.381h-2.929v-4.588h2.929v.381Z" transform="translate(-338.511 -269.286)" fill="#fcfaf5"></path><path id="Path_836" data-name="Path 836" d="M434.191,312.641v4.588h-.4l-2.647-3.889v3.889h-.409v-4.588h.4l2.654,3.9v-3.9Z" transform="translate(-371 -269.286)" fill="#fcfaf5"></path><path id="Path_837" data-name="Path 837" d="M494.467,315.973h-2.2l-.515,1.256h-.438l1.9-4.588h.311l1.9,4.588h-.438Zm-.155-.381-.946-2.315-.946,2.315Z" transform="translate(-423.179 -269.286)" fill="#fcfaf5"></path><path id="Path_838" data-name="Path 838" d="M533.685,313.023h-1.532v4.207h-.41v-4.207h-1.538v-.381h3.479Z" transform="translate(-456.679 -269.286)" fill="#fcfaf5"></path><path id="Path_839" data-name="Path 839" d="M571.49,313.023v1.729h2.372v.381H571.49v1.715h2.52v.381H571.08v-4.588h2.929v.381Z" transform="translate(-491.885 -269.286)" fill="#fcfaf5"></path><path id="Path_840" data-name="Path 840" d="M611.668,316.848v.381h-2.915v-4.588h.409v4.207Z" transform="translate(-524.334 -269.286)" fill="#fcfaf5"></path><rect id="Rectangle_911" data-name="Rectangle 911" width="0.41" height="4.588" transform="translate(89.523 43.356)" fill="#fcfaf5"></rect><path id="Path_841" data-name="Path 841" d="M665.719,313.023v1.729h2.372v.381h-2.372v1.715h2.52v.381h-2.929v-4.588h2.929v.381Z" transform="translate(-573.047 -269.286)" fill="#fcfaf5"></path><path id="Path_842" data-name="Path 842" d="M705.95,317.229l-1.32-1.863h-1.242v1.863h-.41v-4.588h2.1a1.366,1.366,0,0,1,.042,2.724l1.32,1.863Zm-2.562-2.266h1.637a.964.964,0,0,0,0-1.927h-1.637Z" transform="translate(-605.492 -269.285)" fill="#fcfaf5"></path></g></g></g></g></svg>